<svg id="Group_1395" data-name="Group 1395" xmlns="http://www.w3.org/2000/svg" width="336" height="73.774" viewBox="0 0 336 73.774">
  <g id="Group_1386" data-name="Group 1386" transform="translate(0 0)">
    <path id="Path_2005" data-name="Path 2005" d="M-827.857-617.454l.013.008-.022-.016Z" transform="translate(887.392 637.029)" fill="#fff"/>
    <path id="Path_2006" data-name="Path 2006" d="M-832.558-620.952l-.029-.022-.06-.036Z" transform="translate(890.173 639.092)" fill="#fff"/>
    <path id="Path_2007" data-name="Path 2007" d="M-837.64-623.95l-.1-.057.049.033Z" transform="translate(893.133 640.836)" fill="#fff"/>
    <path id="Path_2008" data-name="Path 2008" d="M-933.288-564.324l0-.016h-.012Z" transform="translate(948.724 606.129)" fill="#fff"/>
    <path id="Path_2009" data-name="Path 2009" d="M-887.95-654.129v0C-887.968-654.124-887.962-654.125-887.95-654.129Z" transform="translate(922.349 658.36)" fill="#fff"/>
    <path id="Path_2010" data-name="Path 2010" d="M-909.456-659.945l-.136.09,3.473,6.067.206-.174Z" transform="translate(934.931 661.741)" fill="#fff"/>
    <path id="Path_2011" data-name="Path 2011" d="M-918.669-656.395l.1-.074,4.892,6.72-.245.226Z" transform="translate(940.211 659.719)" fill="#fff"/>
    <path id="Path_2012" data-name="Path 2012" d="M-927.581-651.859l.148-.155,6.293,7.146-.323.361Z" transform="translate(945.395 657.127)" fill="#fff"/>
    <path id="Path_2013" data-name="Path 2013" d="M-896.439-626.729c4.939-.048,10.071-.15,15-.385v-.514c-4.947-.126-10.037-.2-15-.329l-.03-.31-5.991-.6c0-.024,0-.047-.006-.071l5.928-1.462.165.834,14.735-1.8c-.014-.121-.029-.248-.05-.424l-14.882.972-.3-1.457-5.991.257,5.432-2.187-.2-.752c2.386-.747,11.789-3.754,14.171-4.532l-.2-.541-14.535,3.913-5.628,1.031,4.885-2.595,13.853-5.749-.3-.551-14.162,5.091-.512-.748c-1.414.466-3.554,1.482-4.934,1.937,1.1-.842,2.968-2.245,4.11-3.116l.7.9c4.421-2.307,8.763-4.66,13.064-7.169l-.355-.5c-4.632,2.02-9.164,4.186-13.686,6.408-.14-.161-.264-.3-.383-.443s-.228-.283-.36-.448c4.18-2.735,8.3-5.493,12.333-8.419l-.413-.5c-4.425,2.454-8.763,5.026-13.075,7.7l.529.566c-1,.494-3.224,1.8-4.172,2.267.71-.708,2.7-2.246,3.5-3.044l-.561-.555c1.993-1.632,3.792-3.082,5.692-4.667s3.8-3.222,5.706-4.846c-.113-.126-.177-.2-.248-.274s-.172-.152-.268-.236c-4.193,2.867-15.929,11.105-15.929,11.105l13.295-13.408-.585-.43-14.513,12.165-.013-.008-.009-.008.022.016,11.7-14.1-.688-.419-12.977,13.056.029.022-.089-.057.06.035,9.964-14.656-.75-.326-11.4,13.692.1.057-.047-.024-.049-.032,8.267-14.938-.822-.246-9.309,14.326c1.959-4.653,4.484-10.387,6.125-15.154l-.868-.216-7.2,14.681,3.961-15.13-.9-.076-5.268,14.652,2.035-14.728h-1.012l-3.766,14.295.674-14.059-1.065.141-2,13.928-1.015-13.343-1.122.3-.433,13.262-2.373-12.391-1.077.378-.365-2.44-.123.018,1.4,14.792-3.6-11.118-.548.213-1.283-3.84-.1.034,1.182,3.908s-.325.135-.385.153l2.274,11.554-7.112-15.07-.1.044,2.152,5.184-.709.533,3.273,10.308-5.505-8.661c-.217.172-.379.3-.535.426s-.33.284-.5.426l4.17,9.217-6.156-7.376-1.014,1.061,4.821,7.843-6.487-5.887-.7.855-7.794-7.135-.2.192c2.525,2.475,5.135,5.028,7.631,7.474a1.772,1.772,0,0,1,.154-.157l5.485,6.827-16.262-11.589-.169.235,9.035,7.3-.32.615,5.884,5.684-7.029-3.587-.678,1.452,6.2,4.691-7.114-2.377-.332.86-12.937-4.766-.1.366c4.239,1.771,8.555,3.586,12.749,5.338l.118-.227,6.391,3.532-20.795-5.123-.1.4,13.637,4.251c-.041.292-.076.538-.118.845l6.614,2.568-7.013-.287-.189,1.41-14.728-1.014c-.032.153-.055.263-.09.43l14.708,1.738c.05-.331.091-.6.13-.855l6.787,1.51-6.8.684-.019.285-15.007.38v.486l15.083.384.027.326,6.961.559-6.982,1.551-.137-.87-14.756,1.785.1.539,14.841-.989.293,1.377,6.861-.3-6.292,2.314c.07.25.127.46.2.719l-14.15,4.542.176.519c.537-.132,1.033-.248,1.527-.375l13.079-3.52,6.074-1.335L-952.671-617l-.119-.177-13.727,5.9.27.516,14.167-5.078.531.785,5.4-2.039-4.567,3.214-.711-.887-13.052,7.165.349.509,13.694-6.411c.133.159.6.725.738.891l-12.338,8.425.43.5,13.048-7.7-.495-.585,4.4-2.449-3.678,3.192.578.555-11.475,9.6.5.475,15.455-11.122-12.8,13.444.574.4,13.391-11.6-10.6,13.548.707.4,11.8-12.227-8.8,13.823.745.341,9.883-12.729-6.745,13.95.813.28,8.245-12.808-5.058,13.65.905.166,6.243-12.818-3.033,13.305.952.065,4.878-12.411-1.693,12.465h1.027l3.314-11.906-.2,11.669,1.037-.131,1.869-11.4,1.134,10.808,1.1-.294.621-10.65,2.2,9.778.925-.312.518,2.4.069-.05-.879-12.271,3.15,8.619.541-.227,1.271,3.851.114-.037-1.174-3.879.381-.2-1.522-9.146,6.392,12.676.08-.036-2.171-5.184.712-.536-2.421-8.382,4.661,6.751,1.019-.868-3.079-7.514,5.065,5.669,1.016-1.062s-3.936-6.478-3.824-6.59c1.913,1.772,5.553,4.8,5.44,4.69l.737-.893,7.79,7.058.2-.157c-2.507-2.454-5.13-5.026-7.625-7.468,0,0-.128.171-.14.175l-4.269-5.806,5.081,3.366,9.853,7.132.267-.171-9.024-7.29.289-.557-4.841-4.936,6.047,2.726.653-1.394-5.272-4.266,6.177,1.951.351-.86,12.92,4.763.083-.377-12.729-5.312-.1.216-5.6-3.345,20,4.94.123-.4-13.662-4.258c.047-.278.088-.524.13-.771l-5.792-2.472,6.174.105c.069-.492.133-.941.2-1.386,2.5.189,4.946.385,7.4.555s4.9.312,7.376.469l.038-.454c-4.908-.672-9.8-1.236-14.716-1.731-.027.32-.048.581-.071.856l-5.992-1.607,5.95-.585Zm-16.772,11.411a19.134,19.134,0,0,1-4.344,6.381,12.149,12.149,0,0,1-6.437,3.347,10.307,10.307,0,0,1-5.577-.633,13.384,13.384,0,0,1-4.994-3.567,21.476,21.476,0,0,1-4.6-8.527,27.6,27.6,0,0,1-1.03-5.68,28.745,28.745,0,0,1,1.361-11.511,21.085,21.085,0,0,1,3.72-6.838,13.592,13.592,0,0,1,5.772-4.27,10.326,10.326,0,0,1,7.458.026,13.974,13.974,0,0,1,6.219,4.913,23.376,23.376,0,0,1,4.091,9.5,27.128,27.128,0,0,1,.565,5.244A28.218,28.218,0,0,1-913.211-615.318Z" transform="translate(970.167 664.238)" fill="#fff"/>
    <path id="Path_2014" data-name="Path 2014" d="M-967.911-560.583l-.187-.481,14.57-3.26-.015-.015.318,1.368Z" transform="translate(968.964 606.128)" fill="#fff"/>
    <path id="Path_2015" data-name="Path 2015" d="M-780.989-596.682l.147.5c-4.825,1.165-9.742,2.19-14.617,3.168l-.259-1.315C-790.817-595.213-785.928-595.992-780.989-596.682Z" transform="translate(868.692 624.941)" fill="#fff"/>
    <path id="Path_2016" data-name="Path 2016" d="M-968.1-596.123l.142-.438,14.362,2.38-.158,1.105Z" transform="translate(968.965 624.871)" fill="#fff"/>
    <path id="Path_2017" data-name="Path 2017" d="M-794.8-562.693l.168-1.069,14.277,3.035-.057.414Z" transform="translate(868.157 605.792)" fill="#fff"/>
    <path id="Path_2018" data-name="Path 2018" d="M-944.358-618.551l-.355.806-11.678-6.227.179-.313Z" transform="translate(962.154 640.997)" fill="#fff"/>
    <path id="Path_2019" data-name="Path 2019" d="M-788.654-537.222l-.225.283c-3.91-1.889-7.908-3.8-11.858-5.71l.4-.806C-796.41-541.412-792.526-539.372-788.654-537.222Z" transform="translate(871.612 593.98)" fill="#fff"/>
    <path id="Path_2020" data-name="Path 2020" d="M-793-529.748l-10.552-6.418.366-.739,10.431,6.89Z" transform="translate(873.247 590.17)" fill="#fff"/>
    <path id="Path_2021" data-name="Path 2021" d="M-939.68-625.872l-.382.728-10.434-6.889.237-.273Z" transform="translate(958.725 645.663)" fill="#fff"/>
    <path id="Path_2022" data-name="Path 2022" d="M-815.949-517.719l.325-.409,6.172,7.34-.245.13" transform="translate(880.46 579.248)" fill="#fff"/>
    <path id="Path_2023" data-name="Path 2023" d="M-816.449-505.408l-4.91-6.66.309-.294,4.7,6.872Z" transform="translate(883.607 575.894)" fill="#fff"/>
    <path id="Path_2024" data-name="Path 2024" d="M-827.447-506.865l.234-.249c1.162,2.125,3.512,6.154,3.512,6.154l-.11.071Z" transform="translate(887.148 572.841)" fill="#fff"/>
  </g>
  <g id="Group_1387" data-name="Group 1387" transform="translate(104.36 29.042)">
    <path id="Path_2025" data-name="Path 2025" d="M-720.688-585.651c0-5.869,4.568-9.16,11.445-9.16,6.9,0,11.469,3.291,11.469,9.16s-4.568,9.16-11.469,9.16C-716.12-576.49-720.688-579.781-720.688-585.651Zm16.823,0c0-2.824-2.038-4.47-5.378-4.47-3.316,0-5.379,1.646-5.379,4.47s2.038,4.47,5.379,4.47S-703.865-582.826-703.865-585.651Z" transform="translate(720.688 594.811)" fill="#fff"/>
    <path id="Path_2026" data-name="Path 2026" d="M-631.476-587.272c0,4.174-3.29,6.214-8.227,6.214h-6.066v4.788h-5.992v-17.191H-639.7C-634.766-593.461-631.476-591.422-631.476-587.272Zm-6.065.148c0-1.523-1.105-2.039-2.653-2.039h-5.574v4.1h5.574C-638.646-585.061-637.541-585.6-637.541-587.124Z" transform="translate(680.594 594.026)" fill="#fff"/>
    <path id="Path_2027" data-name="Path 2027" d="M-569.771-587.272c0,4.174-3.29,6.214-8.227,6.214h-6.066v4.788h-5.992v-17.191H-578C-573.061-593.461-569.771-591.422-569.771-587.272Zm-6.066.148c0-1.523-1.105-2.039-2.653-2.039h-5.575v4.1h5.575C-576.942-585.061-575.836-585.6-575.836-587.124Z" transform="translate(644.701 594.026)" fill="#fff"/>
    <path id="Path_2028" data-name="Path 2028" d="M-530.465-585.651c0-5.869,4.568-9.16,11.445-9.16,6.9,0,11.469,3.291,11.469,9.16s-4.568,9.16-11.469,9.16C-525.9-576.49-530.465-579.781-530.465-585.651Zm16.823,0c0-2.824-2.038-4.47-5.378-4.47-3.315,0-5.378,1.646-5.378,4.47s2.038,4.47,5.378,4.47S-513.642-582.826-513.642-585.651Z" transform="translate(610.038 594.811)" fill="#fff"/>
    <path id="Path_2029" data-name="Path 2029" d="M-444.026-582.605c0,3.708-3.315,6.115-9.676,6.115a18.454,18.454,0,0,1-11.125-3.266l2.972-3.438a13.9,13.9,0,0,0,8.252,2.48c2.456,0,3.659-.417,3.659-1.276,0-.835-.982-1.13-4.175-1.4-5.28-.466-9.971-1.67-9.971-5.6,0-3.757,4.1-5.82,9.676-5.82a17.961,17.961,0,0,1,9.652,2.481l-2.849,3.487a12.055,12.055,0,0,0-6.8-1.792c-1.744,0-3.757.221-3.757,1.155,0,.835,1.547,1.006,4.322,1.227C-448.1-587.787-444.026-586.682-444.026-582.605Z" transform="translate(571.857 594.811)" fill="#fff"/>
    <path id="Path_2030" data-name="Path 2030" d="M-401.3-576.27v-17.191h5.992v17.191Z" transform="translate(534.905 594.026)" fill="#fff"/>
    <path id="Path_2031" data-name="Path 2031" d="M-354.55-588.918h-6.8v12.648h-5.992v-12.648h-6.778v-4.543h19.573Z" transform="translate(519.095 594.026)" fill="#fff"/>
    <path id="Path_2032" data-name="Path 2032" d="M-314.473-576.27v-17.191h5.992v17.191Z" transform="translate(484.397 594.026)" fill="#fff"/>
    <path id="Path_2033" data-name="Path 2033" d="M-286.061-585.651c0-5.869,4.568-9.16,11.444-9.16,6.9,0,11.469,3.291,11.469,9.16s-4.568,9.16-11.469,9.16C-281.493-576.49-286.061-579.781-286.061-585.651Zm16.823,0c0-2.824-2.038-4.47-5.378-4.47-3.315,0-5.378,1.646-5.378,4.47s2.038,4.47,5.378,4.47S-269.238-582.826-269.238-585.651Z" transform="translate(467.87 594.811)" fill="#fff"/>
    <path id="Path_2034" data-name="Path 2034" d="M-196.136-593.461v17.191h-5.256l-9.971-10.29v10.29h-5.771v-17.191h6.336l8.866,9.333v-9.333Z" transform="translate(427.776 594.026)" fill="#fff"/>
  </g>
</svg>
