<?xml version="1.0" encoding="UTF-8" standalone="no"?>
<!-- Created with Pixodesk SVG (https://pixodesk.com) -->
<svg xmlns="http://www.w3.org/2000/svg" xmlns:pixodesk="https://pixodesk.com" viewBox="0 0 1033 182" text-rendering="geometricPrecision" shape-rendering="geometricPrecision">
  <path class="cls-1" fill="#ffffff" transform="translate(-484.15, -558.45)" d="M574.65,634.78L548.09,626.07C534,621.53,532.11,615.46,532.11,610.12C532.11,601.2,542.65,592.76,553.79,592.76C564.32,592.76,577.21,597.33,578.89,610.22L579.65,616.06L613.54,608.21L612.77,603.3C610.74,590.44,604.15,579.66,593.71,572.1C583.32,564.58,569.44,560.61,553.57,560.61C519.06,560.61,493.03,582.85,493.03,612.35C493.03,622.39,496.01,631.14,501.9,638.35C507.96,645.77,517.02,651.39,528.83,655.07C530.35,655.59,549.99,662.24,555.36,663.83C571,668.46,578.41,673.02,578.23,686.42C578.07,698.53,567.86,705.97,551.58,705.82C536.94,705.69,526.83,695.06,523.82,676.65L522.87,670.82L484.15,681.23L485.04,686.07C487.97,701.99,495.54,715.31,506.91,724.58C518.76,734.25,534.68,739.35,552.94,739.35C571.2,739.35,587.39,734.23,598.38,724.54C609.31,714.9,615.09,701.32,615.09,685.26C615.09,672.73,611.58,662.02,604.66,653.41C597.8,644.88,587.71,638.6,574.66,634.76L574.65,634.78z"/>
  <path class="cls-1" fill="#ffffff" transform="translate(-484.15, -558.45)" d="M691.43,613.66C656.11,613.66,627.48,642.29,627.48,677.61C627.48,712.93,656.11,741.56,691.43,741.56C726.75,741.56,755.38,712.93,755.38,677.61C755.38,642.29,726.75,613.66,691.43,613.66zM691.43,708.7C674.26,708.7,660.34,694.78,660.34,677.61C660.34,660.44,674.26,646.52,691.43,646.52C708.6,646.52,722.52,660.44,722.52,677.61C722.52,694.78,708.6,708.7,691.43,708.7z"/>
  <path class="cls-1" fill="#ffffff" transform="translate(-484.15, -558.45)" d="M853.33,683.3C853.33,690.05,850.95,695.61,846.2,699.97C841.45,704.33,836.03,706.52,829.96,706.52C823.89,706.52,818.48,704.34,813.72,699.97C808.97,695.61,806.59,690.05,806.59,683.3L806.59,616.79L769.16,616.79L769.16,682.77C769.16,694.3,772.01,704.55,777.71,713.53C783.41,722.51,790.84,729.33,799.99,734C809.14,738.67,819.13,741.01,829.96,741.01C840.79,741.01,850.77,738.68,859.93,734C869.08,729.33,876.51,722.51,882.21,713.53C887.91,704.55,890.76,694.3,890.76,682.77L890.76,616.79L853.33,616.79L853.33,683.3z"/>
  <path class="cls-1" fill="#ffffff" transform="translate(-484.15, -558.45)" d="M979.96,613.66C976.23,613.66,972.2,614.39,967.86,615.85C963.52,617.31,959.33,619.78,955.28,623.25C951.23,626.72,948.59,630.8,947.38,635.48L947.38,616.79L907.74,616.79L907.74,736.44L947.38,736.44L947.38,673.48C947.38,666.46,949.43,661.31,953.52,658.05C957.61,654.79,962.34,653.16,967.69,653.16C972.63,653.16,977.03,654.81,980.88,658.11C984.73,661.41,986.66,666.7,986.66,673.98L986.66,736.44L1026.3,736.44L1026.3,672.73C1026.3,653.84,1022.41,639.27,1014.63,629.02C1006.85,618.78,995.3,613.66,979.98,613.66L979.96,613.66z"/>
  <path class="cls-1" fill="#ffffff" transform="translate(-484.15, -558.45)" d="M1134.56,628.32C1134.56,628.32,1125.37,616.97,1108.59,615.05C1106.6,614.86,1104.58,614.76,1102.54,614.76C1067.53,614.76,1039.15,643.14,1039.15,678.15C1039.15,713.16,1067.53,741.54,1102.54,741.54C1105.57,741.54,1108.55,741.32,1111.47,740.91C1126.41,738.13,1134.56,728.07,1134.56,728.07L1134.56,739.39L1170.12,739.39L1170.12,565.33L1134.56,565.33L1134.56,628.31L1134.56,628.32zM1102.54,708.97C1085.52,708.97,1071.72,695.17,1071.72,678.15C1071.72,661.13,1085.52,647.33,1102.54,647.33C1119.56,647.33,1133.36,661.13,1133.36,678.15C1133.36,695.17,1119.56,708.97,1102.54,708.97z"/>
  <g transform="translate(-484.15, -558.45)">
    <path class="cls-1" fill="#ffffff" d="M1285.88,558.45C1235.67,558.45,1194.97,599.15,1194.97,649.36C1194.97,699.57,1235.67,740.27,1285.88,740.27C1336.09,740.27,1376.79,699.57,1376.79,649.36C1376.79,599.15,1336.09,558.45,1285.88,558.45zM1285.88,698.85C1258.55,698.85,1236.39,676.69,1236.39,649.36C1236.39,622.03,1258.55,599.87,1285.88,599.87C1313.21,599.87,1335.37,622.03,1335.37,649.36C1335.37,676.69,1313.21,698.85,1285.88,698.85z"/>
    <path class="cls-3" fill="#25f4ee" d="M1200.88,649.36C1200.88,601.55,1235.81,562.39,1280.17,558.75C1277.94,558.57,1274.9,558.45,1272.63,558.45C1225.12,558.45,1186.6,599.15,1186.6,649.36C1186.6,699.57,1225.12,740.27,1272.63,740.27C1274.9,740.27,1277.94,740.15,1280.17,739.97C1235.81,736.33,1200.88,697.17,1200.88,649.36z"/>
    <path class="cls-2" fill="#fe2c55" d="M1299.71,558.45C1297.42,558.45,1294.36,558.57,1292.12,558.76C1336.45,562.43,1371.35,601.57,1371.35,649.36C1371.35,697.15,1336.45,736.3,1292.12,739.96C1294.36,740.15,1297.42,740.27,1299.71,740.27C1347.22,740.27,1385.74,699.57,1385.74,649.36C1385.74,599.15,1347.22,558.45,1299.71,558.45z"/>
  </g>
  <path class="cls-1" fill="#ffffff" transform="translate(-484.15, -558.45)" d="M1504.18,629.02C1496.4,618.78,1484.85,613.66,1469.53,613.66C1465.8,613.66,1461.77,614.39,1457.43,615.85C1453.09,617.31,1448.9,619.78,1444.85,623.25C1440.8,626.72,1438.16,630.8,1436.95,635.48L1436.95,616.79L1397.31,616.79L1397.31,736.44L1436.95,736.44L1436.95,673.48C1436.95,666.46,1439,661.31,1443.09,658.05C1447.18,654.79,1451.91,653.16,1457.26,653.16C1462.2,653.16,1466.6,654.81,1470.45,658.11C1474.3,661.41,1476.23,666.7,1476.23,673.98L1476.23,736.44L1515.87,736.44L1515.87,672.73C1515.87,653.84,1511.98,639.27,1504.2,629.02L1504.18,629.02z"/>
</svg>