<?xml version="1.0" standalone="no"?>
<!DOCTYPE svg PUBLIC "-//W3C//DTD SVG 20010904//EN"
 "http://www.w3.org/TR/2001/REC-SVG-20010904/DTD/svg10.dtd">
<svg version="1.0" xmlns="http://www.w3.org/2000/svg"
 width="1024.000000pt" height="1024.000000pt" viewBox="0 0 1024.000000 1024.000000"
 preserveAspectRatio="xMidYMid meet">
<metadata>
Created by potrace 1.14, written by Peter Selinger 2001-2017
</metadata>
<g transform="translate(0.000000,1024.000000) scale(0.100000,-0.100000)"
fill="#000000" stroke="none">
<path d="M3625 6147 c-102 -49 -158 -137 -154 -244 8 -215 133 -702 201 -779
16 -18 120 -94 231 -169 111 -75 348 -235 527 -356 l324 -219 113 1 113 2 -33
24 c-17 13 -48 34 -67 46 -19 11 -37 24 -40 27 -3 4 -90 65 -195 136 -104 71
-284 193 -400 271 -115 79 -226 158 -246 177 -31 29 -44 55 -82 173 -59 178
-94 329 -121 520 -2 14 1 20 8 16 17 -9 709 -473 981 -657 1137 -768 1489
-1002 1564 -1039 55 -27 76 -32 132 -31 114 1 214 66 270 176 36 70 27 213
-30 473 -41 185 -87 339 -124 415 -29 59 -40 70 -121 125 -49 33 -180 122
-290 197 -111 75 -342 232 -515 349 l-314 212 -108 1 c-60 1 -109 -1 -109 -4
0 -3 19 -18 43 -33 23 -15 53 -35 66 -44 45 -34 362 -252 836 -577 174 -119
178 -125 244 -323 63 -192 145 -562 128 -579 -4 -4 -518 337 -1162 771 -272
183 -803 541 -1130 759 -285 192 -298 199 -405 203 -74 4 -92 1 -135 -20z"/>
</g>
</svg>
